# xmcd
#
# Track frame offsets:
# 150
# 9045
# 19889
# 34757
# 43034
# 52682
# 58314
# 67859
# 84757
# 89949
# 100057
# 106229
# 116904
# 125407
# 132169
# 137887
# 150629
# 155882
# 165642
# 175604
# 178264
#
# Disc length: 2649 seconds
#
# Revision: 0
# Processed by: cddbd v1.4PL0 Copyright (c) Steve Scherf et al.
# Submitted via: Audion 3.0.2 (http://www.panic.com/audion/)
#
DISCID=140a5715
DTITLE=dennis Driscoll - Is It Love?
DYEAR=1900
DGENRE=
TTITLE0=How it's Going
TTITLE1=The Day That I Met You
TTITLE2=O Happy Day
TTITLE3=If I Was a Ghost
TTITLE4=Cranberry Road
TTITLE5=Radio Station
TTITLE6=She Loves Me Too
TTITLE7=I Like To Sleep
TTITLE8=Everyday
TTITLE9=Sad Dreams
TTITLE10=I Like Rainbows
TTITLE11=Love?
TTITLE12=Plain Song
TTITLE13=Set Me Down
TTITLE14=Monsters
TTITLE15=Ghost Town
TTITLE16=Apple Crisp
TTITLE17=Flaming Shoe
TTITLE18=I Like It
TTITLE19=Grape Juice
TTITLE20=Driving in the Moonlight
EXTD=
EXTT0=
EXTT1=
EXTT2=
EXTT3=
EXTT4=
EXTT5=
EXTT6=
EXTT7=
EXTT8=
EXTT9=
EXTT10=
EXTT11=
EXTT12=
EXTT13=
EXTT14=
EXTT15=
EXTT16=
EXTT17=
EXTT18=
EXTT19=
EXTT20=
PLAYORDER=
